<svg id="Layer_1" data-name="Layer 1" xmlns="http://www.w3.org/2000/svg" width="100mm" height="90.45mm" viewBox="0 0 283.47 256.4"><defs><style>.cls-1{fill:#1d1d1b;fill-rule:evenodd;}</style></defs><title>HY_tunnus_FI_BW</title><path class="cls-1" d="M391,349.31l-2.67,3.33a11.73,11.73,0,0,0,8.06,3.21c4.24,0,7.32-2.49,7.32-6.54v-.06c0-3.4-2.06-5-5.86-6.51-3.39-1.4-4.14-2-4.14-3.24h0c0-1.12,1-1.9,2.52-1.9a7.58,7.58,0,0,1,4.64,2l2.52-3.42a10.39,10.39,0,0,0-7-2.68c-4.2,0-7.13,2.59-7.13,6.38V340c0,3.73,2.4,5.2,6.26,6.69,3.11,1.19,3.74,1.87,3.74,3h0c0,1.28-1.06,2.15-2.81,2.15a8.35,8.35,0,0,1-5.42-2.46Z" transform="translate(-155 -99.54)"/><polygon class="cls-1" points="232.1 234.24 227.59 234.24 227.59 256.03 232.1 256.03 232.1 234.24 232.1 234.24"/><path class="cls-1" d="M373.16,333.78h-7.25v21.79h4.51v-6.64H373c4.57-.09,8.15-2.61,8.15-7.62v-.07c0-4.63-3.08-7.46-8-7.46Zm-.28,4.07c2.4,0,3.71,1.25,3.71,3.52h0a3.32,3.32,0,0,1-3.15,3.5,2.79,2.79,0,0,1-.5,0h-2.52v-7Z" transform="translate(-155 -99.54)"/><path class="cls-1" d="M344.38,344.52v.37c0,6.51,4.05,11.05,9.84,11.05s9.87-4.61,9.87-11.11v-.38c0-6.51-4-11.05-9.84-11.05S344.38,338,344.38,344.52Zm4.64,0c0-4.3,2.15-7,5.2-7s5.2,2.71,5.2,7v.21c0,4.3-2.15,7-5.17,7s-5.23-2.71-5.23-7Z" transform="translate(-155 -99.54)"/><polygon class="cls-1" points="187.12 234.24 182.61 234.24 182.61 256.03 187.12 256.03 187.12 234.24 187.12 234.24"/><polygon class="cls-1" points="172.22 234.24 167.71 234.24 167.71 256.03 181.04 256.03 181.04 251.89 172.22 251.89 172.22 234.24 172.22 234.24"/><polygon class="cls-1" points="153.16 234.24 148.05 234.24 155.15 247.44 155.15 256.03 159.67 256.03 159.67 247.37 166.76 234.24 161.78 234.24 157.46 242.8 153.16 234.24 153.16 234.24"/><polygon class="cls-1" points="131.1 212.6 152.36 212.6 152.36 191.34 131.1 191.34 131.1 212.6 131.1 212.6"/><polygon class="cls-1" points="127.29 234.24 123.15 234.24 123.15 256.03 127.57 256.03 127.57 242.86 136.2 256.03 140.05 256.03 140.05 234.24 135.64 234.24 135.64 246.94 127.29 234.24 127.29 234.24"/><polygon class="cls-1" points="119.89 234.24 115.38 234.24 115.38 256.03 119.89 256.03 119.89 234.24 119.89 234.24"/><path class="cls-1" d="M249.62,344.55v.28c0,6.82,4.23,11.05,10.09,11.05a12.68,12.68,0,0,0,7.75-2.71V343.08h-8.25V347h4v3.87a5.54,5.54,0,0,1-3.24.9c-3.21,0-5.67-2.52-5.67-7v-.24c0-4,2.37-6.86,5.48-6.86a6.2,6.2,0,0,1,4.52,1.87L267,336a10.19,10.19,0,0,0-7.13-2.55c-5.91,0-10.18,4.64-10.18,11.09Z" transform="translate(-155 -99.54)"/><polygon class="cls-1" points="79.52 234.24 75.39 234.24 75.39 256.03 79.8 256.03 79.8 242.86 88.43 256.03 92.29 256.03 92.29 234.24 87.87 234.24 87.87 246.94 79.52 234.24 79.52 234.24"/><polygon class="cls-1" points="72.13 234.24 67.61 234.24 67.61 256.03 72.13 256.03 72.13 234.24 72.13 234.24"/><path class="cls-1" d="M207.71,349.31,205,352.64a11.62,11.62,0,0,0,8.06,3.21c4.23,0,7.31-2.49,7.31-6.54v-.06c0-3.4-2-5-5.85-6.51-3.39-1.4-4.14-2-4.14-3.24h0c0-1.12,1-1.9,2.52-1.9a7.64,7.64,0,0,1,4.64,2l2.52-3.42a10.39,10.39,0,0,0-7-2.68c-4.21,0-7.13,2.59-7.13,6.38V340c0,3.73,2.39,5.2,6.25,6.69,3.12,1.19,3.74,1.87,3.74,3h0c0,1.28-1.06,2.15-2.8,2.15a8.35,8.35,0,0,1-5.42-2.46Z" transform="translate(-155 -99.54)"/><polygon class="cls-1" points="40.59 234.24 36.08 234.24 36.08 256.03 49.41 256.03 49.41 251.89 40.59 251.89 40.59 234.24 40.59 234.24"/><polygon class="cls-1" points="11.68 256.03 16.19 256.03 16.19 234.24 11.68 234.24 11.68 242.98 4.51 242.98 4.51 234.24 0 234.24 0 256.03 4.51 256.03 4.51 247.15 11.68 247.15 11.68 256.03 11.68 256.03"/><polygon class="cls-1" points="33.46 234.24 19.42 234.24 19.42 256.03 33.58 256.03 33.58 251.95 23.9 251.95 23.9 247.09 32.3 247.09 32.3 243.02 23.9 243.02 23.9 238.31 33.46 238.31 33.46 234.24 33.46 234.24"/><polygon class="cls-1" points="131.1 21.26 152.36 21.26 152.36 0 131.1 0 131.1 21.26 131.1 21.26"/><path class="cls-1" d="M410.12,240.72c-8.18-18-26.56-20.63-38.06-28.13-5.51-3.59-7.73-10.8-8.61-16.82-5.42.56-14.44.64-18.75-10.31-3.39-8.62-2-22.89-13.33-35a42.4,42.4,0,0,0-34.64-13.81c14.27,9.54,8.64,23.92-1.72,23.92-14.42,0-18.45-17.37-39.56-17.37a22,22,0,0,0-11.73,3.26c11.82,1.5,14.65,11.19,18.34,20,2.94,7,8.19,11,15.88,13.16a20.05,20.05,0,0,1-9,1.78c-9.32,0-15.82-4.9-22.49-11.78C240.57,163.54,234,157.8,223,157.8a21.65,21.65,0,0,0-11,2.68c6,1,14.94,4.54,14.94,10.92,0,5.46-6,7.55-11,2.33-5.51-5.82-13.23-10.21-22.08-10.21-4.37,0-8.74,1.39-10.59,3.2,10.48,1.2,16.69,7.93,23.17,22.94,3.67,8.47,8.88,16.48,22,16.63,6,.07,14.46-2.77,19.44,2,4.72,4.53,3.13,10.46,5.29,15.27,2.71,6.05,8.34,9.17,19.34,9.74-9.13,7.64-30.94,3.06-38.37-4.75,1,19.54,16.38,37.05,47,28.82,5.31-1.43,9.11-.62,11.15,4.75,2.81,7.39,9.46,8.61,15.75,7.83,14.37-1.78,22.9,1.12,31.18,11,1.81-16.35-9.89-26-17.23-30.56-7-4.37-7.68-8.92-7.76-12.44,5.06,5.79,11.66,8.24,18.52,9.21,11.87,1.67,20.37,5,24.87,11.34,1.31-18-17.57-22-19.88-29.61,5.94,3.88,10.32,5.29,16.5,4.82,8.25-.63,18.28-7.1,25.68,5.57,9.45-6.14,21.82-3.95,30.13,1.43ZM307.36,216.47H286.1V195.21h21.26v21.26Z" transform="translate(-155 -99.54)"/><polygon class="cls-1" points="258.76 238.4 264.24 238.4 264.24 234.24 248.8 234.24 248.8 238.4 254.28 238.4 254.28 256.03 258.76 256.03 258.76 238.4 258.76 238.4"/><path class="cls-1" d="M438.47,344.83v-.38c0-6.51-4.05-11.05-9.84-11.05s-9.87,4.57-9.87,11.12v.37c0,6.51,4,11.05,9.84,11.05S438.47,351.33,438.47,344.83Zm-4.67,0c0,4.3-2.15,7-5.17,7s-5.24-2.71-5.24-7v-.21c0-4.3,2.15-7,5.21-7s5.2,2.71,5.2,7Z" transform="translate(-155 -99.54)"/></svg>